<svg width="229" height="150" viewBox="0 0 229 150" fill="none" xmlns="http://www.w3.org/2000/svg">
<path d="M70.8374 58.6001H71.7974V92.2001H70.9814L46.3574 60.3761V92.2001H45.3974V58.6001H46.2134L70.8374 90.4241V58.6001Z" fill="black"/>
<path d="M19.96 92.3441C11.944 92.3441 7 87.6401 7 78.1361V58.6001H7.96V78.0881C7.96 87.0641 12.328 91.4321 19.96 91.4321C27.592 91.4321 31.96 87.0641 31.96 78.0881V58.6001H32.92V78.1361C32.92 87.6401 27.976 92.3441 19.96 92.3441Z" fill="black"/>
<path d="M216.967 92.2719L207.367 80.0799L203.815 83.8719V92.2719H194.407V58.6719H203.815V72.6399L216.823 58.6719H227.287L213.559 73.5519L228.007 92.2719H216.967Z" fill="black"/>
<path d="M175.137 92.944C169.617 92.944 164.145 91.456 160.977 89.248L164.097 82.24C167.073 84.208 171.297 85.552 175.185 85.552C179.121 85.552 180.657 84.448 180.657 82.816C180.657 77.488 161.553 81.376 161.553 68.896C161.553 62.896 166.449 58 176.433 58C180.801 58 185.313 59.008 188.625 60.928L185.697 67.984C182.481 66.256 179.313 65.392 176.385 65.392C172.401 65.392 170.961 66.736 170.961 68.416C170.961 73.552 190.017 69.712 190.017 82.096C190.017 87.952 185.121 92.944 175.137 92.944Z" fill="black"/>
<path d="M150.746 92.2719L148.106 85.7439H133.898L131.258 92.2719H121.562L136.394 58.6719H145.754L160.634 92.2719H150.746ZM136.682 78.7359H145.322L141.002 67.9839L136.682 78.7359Z" fill="black"/>
<path d="M118.869 92.2719H110.133L110.037 74.4639L101.397 88.9599H97.1734L88.5814 74.9439V92.2719H79.7974V58.6719H87.6214L99.4294 78.0639L110.949 58.6719H118.773L118.869 92.2719Z" fill="black"/>
<path d="M71.75 0V150H70.25V0H71.75Z" fill="black"/>
</svg>
