<svg width="229" height="229" viewBox="0 0 229 229" fill="none" xmlns="http://www.w3.org/2000/svg">
<path d="M67.8374 98.6001H68.7974V132.2H67.9814L43.3574 100.376V132.2H42.3974V98.6001H43.2134L67.8374 130.424V98.6001Z" fill="black"/>
<path d="M16.96 132.344C8.94398 132.344 3.99998 127.64 3.99998 118.136V98.6001H4.95998V118.088C4.95998 127.064 9.32798 131.432 16.96 131.432C24.592 131.432 28.96 127.064 28.96 118.088V98.6001H29.92V118.136C29.92 127.64 24.976 132.344 16.96 132.344Z" fill="black"/>
<path d="M213.967 132.272L204.367 120.08L200.815 123.872V132.272H191.407V98.6719H200.815V112.64L213.823 98.6719H224.287L210.559 113.552L225.007 132.272H213.967Z" fill="black"/>
<path d="M172.137 132.944C166.617 132.944 161.145 131.456 157.977 129.248L161.097 122.24C164.073 124.208 168.297 125.552 172.185 125.552C176.121 125.552 177.657 124.448 177.657 122.816C177.657 117.488 158.553 121.376 158.553 108.896C158.553 102.896 163.449 98 173.433 98C177.801 98 182.313 99.008 185.625 100.928L182.697 107.984C179.481 106.256 176.313 105.392 173.385 105.392C169.401 105.392 167.961 106.736 167.961 108.416C167.961 113.552 187.017 109.712 187.017 122.096C187.017 127.952 182.121 132.944 172.137 132.944Z" fill="black"/>
<path d="M147.746 132.272L145.106 125.744H130.898L128.258 132.272H118.562L133.394 98.6719H142.754L157.634 132.272H147.746ZM133.682 118.736H142.322L138.002 107.984L133.682 118.736Z" fill="black"/>
<path d="M115.869 132.272H107.133L107.037 114.464L98.3974 128.96H94.1734L85.5814 114.944V132.272H76.7974V98.6719H84.6214L96.4294 118.064L107.949 98.6719H115.773L115.869 132.272Z" fill="black"/>
<path d="M68.75 40V190H67.25V40H68.75Z" fill="black"/>
</svg>
